<svg width="600" height="400" viewBox="0 0 600 400" fill="none" xmlns="http://www.w3.org/2000/svg">
  <rect width="600" height="400" fill="#0f172a"/>
  <rect x="50" y="50" width="500" height="300" rx="8" fill="#1e293b"/>
  <rect x="80" y="80" width="440" height="40" rx="4" fill="#334155"/>
  <rect x="100" y="95" width="80" height="10" rx="2" fill="#64748b"/>
  <rect x="400" y="90" width="60" height="20" rx="10" fill="#10b981"/>
  <rect x="80" y="140" width="300" height="12" rx="2" fill="#374151"/>
  <rect x="80" y="160" width="280" height="12" rx="2" fill="#374151"/>
  <rect x="80" y="180" width="320" height="12" rx="2" fill="#374151"/>
  <rect x="400" y="140" width="120" height="12" rx="2" fill="#3b82f6"/>
  <rect x="400" y="160" width="100" height="12" rx="2" fill="#3b82f6"/>
  <rect x="400" y="180" width="110" height="12" rx="2" fill="#3b82f6"/>
  <rect x="80" y="220" width="440" height="2" rx="1" fill="#475569"/>
  <rect x="80" y="240" width="200" height="30" rx="4" fill="#374151"/>
  <circle cx="460" cy="255" r="15" fill="#10b981"/>
  <text x="300" y="300" fill="#94a3b8" font-family="Arial, sans-serif" font-size="16" text-anchor="middle">
    Real-Time Chat App
  </text>
  <text x="300" y="320" fill="#64748b" font-family="Arial, sans-serif" font-size="12" text-anchor="middle">
    Node.js • Socket.io • Firebase
  </text>
</svg>